# xmcd
#
# Track frame offsets: 
#        150
#        15802
#        27797
#        41637
#        52690
#        65137
#        81570
#        100665
#        114087
#        128107
#        146250
#        156925
#        169137
#        179575
#        192380
#        202815
#        215117
#        225177
#
# Disc length: 3140 seconds
#
# Revision: 5
# Processed by: cddbd v1.5.2PL0 Copyright (c) Steve Scherf et al.
# Submitted via: ExactAudioCopy v0.99pb5
#
DISCID=e80c4212
DTITLE=Various Artist - The History Of Country Music - The Seventies - Volume
DTITLE=2 - CD 2
DYEAR=1993
DGENRE=Country
TTITLE0=Kris Kristofferson - Why me
TTITLE1=Dolly Parton - Jolene
TTITLE2=Conway Twitty - Fifteen years ago
TTITLE3=Joe Stampley - Soul song
TTITLE4=Don Williams - Some broken hearts never mend
TTITLE5=Ray Price - I won't mention it again
TTITLE6=Tammy Wynette - Bedtime story
TTITLE7=Waylon Jennings - Amanda
TTITLE8=George Jones - The grand tour
TTITLE9=Johnny Cash And The Tennessee Three - One piece at a time
TTITLE10=Billy 'Crash' Craddock - Ruby baby
TTITLE11=Sonny James - When the snow is on the roses
TTITLE12=Charley Pride - I'm just me
TTITLE13=Freddy Fender - You'll lose a good thing
TTITLE14=Jerry Reed - When you're hot, you're hot
TTITLE15=Dave and Sugar - The door is always open
TTITLE16=Statler Brothers - Do you know you are my sunshine
TTITLE17=Johnny Rodriguez - You always come back (to hurting me)
EXTD=YEAR: 1993
EXTT0=
EXTT1=
EXTT2=
EXTT3=
EXTT4=
EXTT5=
EXTT6=
EXTT7=
EXTT8=
EXTT9=
EXTT10=
EXTT11=
EXTT12=
EXTT13=
EXTT14=
EXTT15=
EXTT16=
EXTT17=
PLAYORDER=
